<svg width="23" height="23" viewBox="0 0 23 23" fill="none" xmlns="http://www.w3.org/2000/svg">
<path d="M4.33496 12.4986L5.5364 13.7786" stroke="#BF9766" stroke-miterlimit="10" stroke-linecap="square"/>
<path d="M5.5364 12.4986L4.33496 13.7786" stroke="#BF9766" stroke-miterlimit="10" stroke-linecap="square"/>
<path d="M8.63916 12.4986L9.8406 13.7786" stroke="#BF9766" stroke-miterlimit="10" stroke-linecap="square"/>
<path d="M9.8406 12.4986L8.63916 13.7786" stroke="#BF9766" stroke-miterlimit="10" stroke-linecap="square"/>
<path d="M12.9438 12.4986L14.1453 13.7786" stroke="#BF9766" stroke-miterlimit="10" stroke-linecap="square"/>
<path d="M14.1453 12.4986L12.9438 13.7786" stroke="#BF9766" stroke-miterlimit="10" stroke-linecap="square"/>
<path d="M20.4284 2.99707H22V22H1V2.99707H3.64183" stroke="#BF9766" stroke-miterlimit="10" stroke-linecap="square"/>
<path d="M7.06427 1H4.36523V4.9691H7.06427V1Z" stroke="#BF9766" stroke-miterlimit="10" stroke-linecap="square"/>
<path d="M18.6346 1H15.9355V4.9691H18.6346V1Z" stroke="#BF9766" stroke-miterlimit="10" stroke-linecap="square"/>
<path d="M1 7.52191H19.9538" stroke="#BF9766" stroke-miterlimit="10" stroke-linecap="square"/>
<path d="M4.1499 10.2576H5.72154" stroke="#BF9766" stroke-miterlimit="10" stroke-linecap="square"/>
<path d="M8.4541 10.2576H10.0257" stroke="#BF9766" stroke-miterlimit="10" stroke-linecap="square"/>
<path d="M12.7588 10.2576H14.3304" stroke="#BF9766" stroke-miterlimit="10" stroke-linecap="square"/>
<path d="M17.0664 10.2576H18.6347" stroke="#BF9766" stroke-miterlimit="10" stroke-linecap="square"/>
<path d="M17.0664 13.273H18.6347" stroke="#BF9766" stroke-miterlimit="10" stroke-linecap="square"/>
<path d="M4.1499 16.292H5.72154" stroke="#BF9766" stroke-miterlimit="10" stroke-linecap="square"/>
<path d="M8.4541 16.292H10.0257" stroke="#BF9766" stroke-miterlimit="10" stroke-linecap="square"/>
<path d="M12.7588 16.292H14.3304" stroke="#BF9766" stroke-miterlimit="10" stroke-linecap="square"/>
<path d="M17.0664 16.292H18.6347" stroke="#BF9766" stroke-miterlimit="10" stroke-linecap="square"/>
<path d="M4.1499 19.3109H5.72154" stroke="#BF9766" stroke-miterlimit="10" stroke-linecap="square"/>
<path d="M8.4541 19.3109H10.0257" stroke="#BF9766" stroke-miterlimit="10" stroke-linecap="square"/>
<path d="M12.7588 19.3109H14.3304" stroke="#BF9766" stroke-miterlimit="10" stroke-linecap="square"/>
<path d="M17.0664 19.3109H18.6347" stroke="#BF9766" stroke-miterlimit="10" stroke-linecap="square"/>
<path d="M8.8584 2.99707H15.9358" stroke="#BF9766" stroke-miterlimit="10" stroke-linecap="square"/>
</svg>
