<svg width="127" height="22" viewBox="0 0 127 22" fill="none" xmlns="http://www.w3.org/2000/svg">
<path d="M36.9523 0.983093L39.2881 8.17205L46.8471 8.17206L40.7318 12.6151L43.0676 19.804L36.9523 15.361L30.837 19.804L33.1728 12.6151L27.0575 8.17206L34.6165 8.17205L36.9523 0.983093Z" fill="#FFC952"/>
<path d="M10.404 0.983093L12.7398 8.17205L20.2987 8.17206L14.1834 12.6151L16.5193 19.804L10.404 15.361L4.28867 19.804L6.6245 12.6151L0.509206 8.17206L8.06813 8.17205L10.404 0.983093Z" fill="#FFC952"/>
<path d="M116.596 0.983093L118.932 8.17205L126.491 8.17206L120.375 12.6151L122.711 19.804L116.596 15.361L110.481 19.804L112.816 12.6151L106.701 8.17206L114.26 8.17205L116.596 0.983093Z" fill="#FFC952"/>
<path d="M90.0475 0.983093L92.3834 8.17205L99.9423 8.17206L93.827 12.6151L96.1628 19.804L90.0475 15.361L83.9322 19.804L86.2681 12.6151L80.1528 8.17206L87.7117 8.17205L90.0475 0.983093Z" fill="#FFC952"/>
<path d="M63.5006 0.983093L65.8365 8.17205L73.3954 8.17206L67.2801 12.6151L69.6159 19.804L63.5006 15.361L57.3853 19.804L59.7212 12.6151L53.6059 8.17206L61.1648 8.17205L63.5006 0.983093Z" fill="#FFC952"/>
</svg>
